# xmcd
#
# Track frame offsets: 
#        150
#        10607
#        24183
#        38090
#        51829
#        65579
#        79846
#        93074
#        106429
#        119881
#        133782
#        147850
#        161808
#        175374
#        189168
#        202632
#
# Disc length: 2976 seconds
#
# Revision: 0
# Processed by: cddbd v1.5.2PL0 Copyright (c) Steve Scherf et al.
# Submitted via: ExactAudioCopy v0.99pb5
#
DISCID=cf0b9e10
DTITLE=TMP - Blues and the city 2
DYEAR=1900
DGENRE=Blues
TTITLE0=Big legs, tight skirt - John Lee Hooker
TTITLE1=Rollin' and Tumblin' - Muddy Waters
TTITLE2=Good morning little schoolgirl - Mississippi Fred McDowell
TTITLE3=Key to the highway - Big Bill Broonzy
TTITLE4=Sweet home Chicago - Robert Johnson
TTITLE5=Whole lotta love - B.B. King
TTITLE6=Mean old world - T-Bone Walker
TTITLE7=All around the world - Lettle Willie John
TTITLE8=Bricks in my pillow - Robert Nighthawk
TTITLE9=Walking the blues - Willie Dixon
TTITLE10=You don't have to go - Jimmy Reed
TTITLE11=She just won't do right (Dust my broom) - Elmore James
TTITLE12=Night train - Jimmy Forrest
TTITLE13=A fool for you - Ray Charles
TTITLE14=Nobody knows you when you're down and out - Bessie Smith
TTITLE15=So tired (live) - Buddy Guy, Junior Wells
EXTD=
EXTT0=
EXTT1=
EXTT2=
EXTT3=
EXTT4=
EXTT5=
EXTT6=
EXTT7=
EXTT8=
EXTT9=
EXTT10=
EXTT11=
EXTT12=
EXTT13=
EXTT14=
EXTT15=
PLAYORDER=
